<?xml version="1.0" encoding="UTF-8" standalone="no"?>
<!DOCTYPE svg PUBLIC "-//W3C//DTD SVG 1.1//EN" "http://www.w3.org/Graphics/SVG/1.1/DTD/svg11.dtd">
<svg width="100%" height="100%" viewBox="0 0 330 253" version="1.1" xmlns="http://www.w3.org/2000/svg" xmlns:xlink="http://www.w3.org/1999/xlink" xml:space="preserve" xmlns:serif="http://www.serif.com/" style="fill-rule:evenodd;clip-rule:evenodd;stroke-linejoin:round;stroke-miterlimit:2;">
    <g transform="matrix(1,0,0,1,-944.841,-85.3648)">
        <g>
            <rect x="0" y="0.188" width="1365.33" height="767.625" style="fill:white;fill-rule:nonzero;"/>
            <rect x="0" y="0.188" width="1365.33" height="767.625" style="fill:white;fill-rule:nonzero;"/>
        </g>
        <g>
            <clipPath id="_clip1">
                <rect x="944.391" y="85.333" width="330.839" height="252.411"/>
            </clipPath>
            <g clip-path="url(#_clip1)">
                <path d="M1273.38,156.625C1275.18,154.828 1275.18,151.917 1273.38,150.12C1271.58,148.323 1268.66,148.323 1266.85,150.12L1190.66,226.125L1125.75,161.37C1125.73,161.354 1125.72,161.344 1125.7,161.328C1125.63,161.26 1125.56,161.198 1125.49,161.135C1125.44,161.099 1125.4,161.057 1125.35,161.021C1125.28,160.969 1125.21,160.917 1125.15,160.87C1125.08,160.828 1125.03,160.786 1124.97,160.75C1124.91,160.714 1124.85,160.677 1124.79,160.641C1124.72,160.599 1124.65,160.557 1124.57,160.521C1124.52,160.495 1124.46,160.474 1124.41,160.448C1124.33,160.411 1124.25,160.37 1124.16,160.339C1124.11,160.318 1124.06,160.302 1124,160.286C1123.92,160.255 1123.83,160.224 1123.75,160.198C1123.68,160.182 1123.62,160.172 1123.56,160.156C1123.48,160.135 1123.4,160.115 1123.32,160.099C1123.25,160.089 1123.17,160.078 1123.1,160.068C1123.03,160.057 1122.96,160.047 1122.88,160.042C1122.8,160.036 1122.71,160.031 1122.62,160.031C1122.57,160.026 1122.51,160.026 1122.45,160.026C1122.35,160.026 1122.26,160.031 1122.17,160.036C1122.12,160.042 1122.06,160.042 1122.01,160.047C1121.92,160.057 1121.82,160.073 1121.73,160.089C1121.68,160.099 1121.62,160.104 1121.56,160.115C1121.48,160.135 1121.4,160.156 1121.32,160.177C1121.26,160.193 1121.18,160.208 1121.12,160.229C1121.05,160.25 1120.98,160.276 1120.92,160.302C1120.84,160.328 1120.76,160.359 1120.68,160.391C1120.62,160.417 1120.57,160.443 1120.52,160.464C1120.43,160.51 1120.34,160.552 1120.26,160.599C1120.24,160.609 1120.22,160.615 1120.2,160.625L1096.23,174.224C1089.41,177.766 1081.65,178.344 1074.37,175.849C1068.15,173.719 1063.04,169.609 1059.68,164.109C1064.96,159.813 1077.85,150.109 1096.73,141.104C1101.85,138.667 1107.62,137.964 1113.41,138.292C1113.62,138.318 1113.82,138.339 1114.03,138.339C1114.05,138.339 1114.06,138.333 1114.08,138.333C1131.58,139.568 1149.06,149.99 1149.29,150.13C1151.13,151.245 1153.5,150.948 1155,149.411L1209.86,93.172C1211.63,91.354 1211.59,88.438 1209.77,86.667C1207.94,84.896 1205.02,84.938 1203.25,86.755L1150.86,140.458C1144.62,137.135 1130.33,130.396 1115.25,129.214C1087.2,115.568 1058.04,122.635 1048.88,125.458L1020.13,96.781C1018.33,94.984 1015.41,94.984 1013.61,96.781C1011.81,98.578 1011.81,101.49 1013.61,103.286L1044.38,133.979C1045.66,135.255 1047.57,135.667 1049.27,135.031C1049.53,134.932 1070.88,127.125 1094.7,131.948C1094.05,132.214 1093.4,132.495 1092.76,132.802C1066.34,145.396 1051.38,159.042 1050.76,159.615C1049.29,160.964 1048.86,163.094 1049.68,164.901C1053.94,174.24 1061.64,181.219 1071.37,184.552C1075.33,185.911 1079.41,186.589 1083.45,186.589C1089.34,186.589 1095.19,185.161 1100.58,182.339C1100.63,182.313 1100.68,182.292 1100.72,182.26L1121.71,170.359L1194.21,242.677C1194.21,242.682 1194.21,242.682 1194.21,242.688L1209.21,257.641C1211.22,259.646 1212.32,262.307 1212.32,265.141C1212.32,267.979 1211.22,270.641 1209.21,272.646L1201.69,280.151L1183.71,262.214L1179.17,257.682C1177.37,255.885 1174.44,255.885 1172.64,257.682C1170.84,259.479 1170.84,262.396 1172.64,264.193L1196.72,288.214C1200.87,292.349 1200.87,299.083 1196.72,303.219C1194.71,305.219 1192.04,306.323 1189.2,306.323C1186.36,306.323 1183.69,305.219 1181.68,303.219L1177.14,298.693L1177.14,298.688L1151.55,273.156C1149.75,271.359 1146.82,271.359 1145.02,273.156C1143.22,274.953 1143.22,277.87 1145.02,279.667L1170.62,305.198C1174.77,309.333 1174.77,316.063 1170.62,320.198C1166.47,324.339 1159.72,324.339 1155.57,320.203L1129.98,294.672C1129.97,294.667 1129.97,294.667 1129.97,294.661L1123.93,288.635C1122.12,286.833 1119.2,286.833 1117.4,288.635C1115.6,290.432 1115.6,293.344 1117.4,295.141L1131.78,309.484C1135.93,313.62 1135.67,320.604 1131.21,325.052C1126.76,329.5 1119.75,329.755 1115.6,325.62L1108.08,318.12L1111.54,314.661C1115.18,311.036 1117.18,306.214 1117.18,301.083C1117.18,295.958 1115.18,291.135 1111.54,287.51L1110.67,286.641C1106.78,282.755 1101.62,280.896 1096.51,281.042C1097.46,278.745 1097.96,276.26 1097.96,273.698C1097.96,268.573 1095.95,263.75 1092.32,260.12L1091.45,259.255C1088.22,256.036 1084.05,254.104 1079.56,253.708C1080.08,251.953 1080.35,250.115 1080.35,248.234C1080.35,243.104 1078.35,238.286 1074.71,234.656L1073.84,233.792C1070.21,230.161 1065.38,228.167 1060.23,228.167C1058.34,228.167 1056.5,228.438 1054.75,228.958C1054.35,224.474 1052.41,220.313 1049.18,217.094L1048.31,216.229C1044.68,212.604 1039.84,210.604 1034.7,210.604C1029.56,210.604 1024.73,212.604 1021.09,216.229L1013.52,223.786L952.714,163.141C950.911,161.344 947.995,161.344 946.193,163.141C944.391,164.938 944.391,167.849 946.193,169.646L1007,230.297L1001.86,235.411C994.359,242.901 994.359,255.078 1001.86,262.568L1013.08,273.755C1013.31,273.99 1013.57,274.193 1013.83,274.365C1013.83,274.391 1013.83,274.422 1013.83,274.453C1013.83,279.583 1015.83,284.406 1019.47,288.031C1023.46,292.01 1028.7,294.005 1033.95,294.005C1035.79,294.005 1037.62,293.755 1039.4,293.266C1039.7,297.922 1041.66,302.26 1045,305.594L1046.65,307.24C1050.18,310.766 1054.83,312.531 1059.47,312.531C1061.15,312.531 1062.83,312.297 1064.45,311.839C1064.4,312.432 1064.37,313.031 1064.37,313.635C1064.37,318.766 1066.37,323.583 1070,327.214L1070.87,328.078C1074.62,331.823 1079.55,333.693 1084.48,333.693C1089.41,333.693 1094.34,331.823 1098.09,328.078L1101.56,324.625L1109.08,332.13C1112.85,335.891 1117.83,337.76 1122.88,337.76C1128.21,337.76 1133.6,335.688 1137.73,331.563C1140.72,328.578 1142.64,324.938 1143.47,321.146L1149.05,326.708C1152.92,330.573 1158.01,332.505 1163.09,332.505C1168.18,332.505 1173.27,330.573 1177.14,326.708C1180.56,323.302 1182.46,318.948 1182.87,314.484C1184.92,315.172 1187.06,315.521 1189.2,315.521C1194.29,315.521 1199.38,313.589 1203.25,309.724C1209.25,303.745 1210.59,294.854 1207.3,287.563L1215.73,279.156C1223.48,271.427 1223.48,258.859 1215.73,251.13L1200.73,236.172L1197.19,232.63L1273.38,156.625ZM1008.38,256.057C1004.48,252.161 1004.48,245.818 1008.38,241.922L1027.62,222.734C1029.51,220.849 1032.03,219.807 1034.7,219.807C1037.38,219.807 1039.9,220.849 1041.79,222.734L1041.79,222.74L1042.66,223.604C1044.55,225.495 1045.59,228.005 1045.59,230.672C1045.59,233.344 1044.55,235.854 1042.66,237.74L1016.34,263.995L1008.38,256.057ZM1025.99,281.521C1024.1,279.635 1023.06,277.125 1023.06,274.453C1023.06,271.786 1024.1,269.276 1025.99,267.385L1041.01,252.406L1049.18,244.25C1049.19,244.25 1049.19,244.245 1049.19,244.245L1053.15,240.297C1055.04,238.411 1057.55,237.37 1060.23,237.37C1062.91,237.37 1065.43,238.411 1067.32,240.297L1068.19,241.167C1070.08,243.057 1071.12,245.568 1071.12,248.234C1071.12,250.906 1070.08,253.417 1068.19,255.302L1041.9,281.521C1037.52,285.901 1030.38,285.901 1025.99,281.521ZM1053.17,300.729L1051.52,299.083C1049.62,297.198 1048.58,294.688 1048.58,292.016C1048.58,289.349 1049.62,286.839 1051.52,284.948L1061.32,275.172L1070.76,265.76C1072.65,263.875 1075.16,262.833 1077.84,262.833C1080.52,262.833 1083.03,263.875 1084.93,265.766L1085.79,266.63C1087.69,268.521 1088.73,271.031 1088.73,273.703C1088.73,276.37 1087.69,278.88 1085.79,280.771L1065.78,300.729C1062.31,304.198 1056.65,304.203 1053.17,300.729ZM1077.4,321.573L1076.53,320.703C1074.63,318.818 1073.59,316.307 1073.59,313.635C1073.59,310.964 1074.63,308.453 1076.53,306.568L1089.97,293.151C1091.93,291.198 1094.5,290.224 1097.06,290.224C1099.63,290.224 1102.2,291.203 1104.15,293.151L1105.02,294.016C1106.91,295.906 1107.95,298.417 1107.95,301.083C1107.95,303.755 1106.91,306.266 1105.02,308.156L1098.3,314.859C1098.3,314.865 1098.3,314.865 1098.29,314.865L1091.57,321.573C1087.66,325.469 1081.3,325.469 1077.4,321.573Z" style="fill-rule:nonzero;"/>
            </g>
        </g>
    </g>
</svg>
