<?xml version="1.0" encoding="UTF-8" standalone="no"?>
<!DOCTYPE svg PUBLIC "-//W3C//DTD SVG 1.1//EN" "http://www.w3.org/Graphics/SVG/1.1/DTD/svg11.dtd">
<!-- Created with Vectornator (http://vectornator.io/) -->
<svg height="100%" stroke-miterlimit="10" style="fill-rule:nonzero;clip-rule:evenodd;stroke-linecap:round;stroke-linejoin:round;" version="1.1" viewBox="0 0 360 360" width="100%" xml:space="preserve" xmlns="http://www.w3.org/2000/svg" xmlns:vectornator="http://vectornator.io" xmlns:xlink="http://www.w3.org/1999/xlink">
<defs/>
<g id="Layer-1" vectornator:layerName="Layer 1">
<path d="M23.0767 145.915L56.9546 145.915L56.9347 199.087C56.9347 199.087 55.3448 204.478 51.7998 208.033C48.2548 211.588 42.7396 212.512 42.7396 212.512L14.9956 212.512L14.9912 200.306L36.6064 200.312C36.6064 200.312 39.7045 199.745 41.2903 196.938C42.8762 194.131 42.9498 189.086 42.9498 189.086L42.5649 158.568L23.0725 158.408L23.0767 145.915Z" fill="#000000" fill-rule="nonzero" opacity="1" stroke="#000000" stroke-linecap="butt" stroke-linejoin="round" stroke-width="1" vectornator:layerName="Curve 1"/>
<path d="M86.4062 145.906L64.2812 212.5L79.3125 212.5L83.6562 196L112.094 196.062L118.062 212.531L132.25 212.531L109.781 145.906L86.4062 145.906ZM98.2812 157.344L107.906 182.875L88.1562 183L98.2812 157.344Z" fill="#000000" fill-rule="nonzero" opacity="1" stroke="#000000" stroke-linecap="butt" stroke-linejoin="round" stroke-width="1" vectornator:layerName="Curve 6"/>
<path d="M140.27 212.512L140.276 145.915L169.125 145.915L184.529 199.584L189.748 199.538L189.205 145.915L204.342 145.915L204.254 212.512L175.137 212.512L158.554 158.312L155.053 158.327L155.127 212.512L140.27 212.512Z" fill="#000000" fill-rule="nonzero" opacity="1" stroke="#000000" stroke-linecap="butt" stroke-linejoin="round" stroke-width="1" vectornator:layerName="Curve 3"/>
<path d="M213.952 145.916L228.681 145.916L228.611 186.322C228.611 186.322 227.863 200.664 243.192 200.631C258.325 200.598 257.233 186.926 257.233 186.926L256.975 145.916L272.976 145.915L272.738 189.181C272.738 189.181 271.092 200.987 263.806 207.112C256.521 213.237 243.722 212.512 243.722 212.512C243.722 212.512 229.627 212.923 222.018 207.005C214.408 201.086 213.757 189.879 213.757 189.879L213.952 145.916Z" fill="#000000" fill-rule="nonzero" opacity="1" stroke="#000000" stroke-linecap="butt" stroke-linejoin="round" stroke-width="1" vectornator:layerName="Curve 4"/>
<path d="M321.643 167.928L335.718 167.99C335.718 167.99 335.456 156.241 327.166 150.659C318.876 145.077 306.759 145.915 306.759 145.915C306.759 145.915 291.064 146.409 285.609 152.929C280.154 159.448 282.136 168.332 284.916 171.366C292.923 180.105 305.906 183.845 315.654 186.64C321.341 188.27 336.396 200.564 309.415 200.474C291.942 200.417 293.478 187.884 293.478 187.884L280.175 187.729C280.175 187.729 279.537 197.355 284.408 203.429C289.279 209.503 293.227 212.512 311.381 212.512C329.535 212.512 337.795 207.307 338.575 193.541C339.195 182.605 319.874 175.06 319.874 175.06C319.874 175.06 296.666 168.68 296.868 164.138C297.07 159.596 304.771 155.331 313.919 158.266C323.068 161.201 321.643 167.928 321.643 167.928Z" fill="#000000" fill-rule="nonzero" opacity="1" stroke="#000000" stroke-linecap="butt" stroke-linejoin="round" stroke-width="1" vectornator:layerName="Curve 5"/>
</g>
</svg>
