<?xml version="1.0" encoding="UTF-8" standalone="no"?>
<!DOCTYPE svg PUBLIC "-//W3C//DTD SVG 1.1//EN" "http://www.w3.org/Graphics/SVG/1.1/DTD/svg11.dtd">
<!-- Created with Vectornator (http://vectornator.io/) -->
<svg height="100%" stroke-miterlimit="10" style="fill-rule:nonzero;clip-rule:evenodd;stroke-linecap:round;stroke-linejoin:round;" version="1.1" viewBox="0 0 324 67" width="100%" xml:space="preserve" xmlns="http://www.w3.org/2000/svg" xmlns:vectornator="http://vectornator.io" xmlns:xlink="http://www.w3.org/1999/xlink">
<defs/>
<clipPath id="ArtboardFrame">
<rect height="67" width="324" x="0" y="0"/>
</clipPath>
<g clip-path="url(#ArtboardFrame)" id="Layer-1" vectornator:layerName="Layer 1">
<path d="M8.28639 0.210214L42.1643 0.210214L42.1444 53.3826C42.1444 53.3826 40.5545 58.7733 37.0095 62.3284C33.4645 65.8835 27.9493 66.8078 27.9493 66.8078L0.205327 66.8078L0.200943 54.6017L21.8161 54.608C21.8161 54.608 24.9142 54.0402 26.5001 51.2335C28.0859 48.4269 28.1595 43.3814 28.1595 43.3814L27.7746 12.8637L8.2822 12.7033L8.28639 0.210214Z" fill="#000000" fill-rule="nonzero" opacity="1" stroke="#000000" stroke-linecap="butt" stroke-linejoin="round" stroke-width="1" vectornator:layerName="Curve 1"/>
<path d="M71.616 0.201787L49.491 66.7955L64.5222 66.7955L68.866 50.2955L97.3035 50.358L103.272 66.8268L117.46 66.8268L94.991 0.201787L71.616 0.201787ZM83.491 11.6393L93.116 37.1705L73.366 37.2955L83.491 11.6393Z" fill="#000000" fill-rule="nonzero" opacity="1" stroke="#000000" stroke-linecap="butt" stroke-linejoin="round" stroke-width="1" vectornator:layerName="Curve 2"/>
<path d="M125.48 66.8078L125.485 0.210214L154.334 0.210214L169.739 53.8792L174.958 53.8337L174.415 0.210214L189.552 0.210214L189.463 66.8078L160.347 66.8078L143.764 12.6079L140.263 12.6223L140.336 66.8078L125.48 66.8078Z" fill="#000000" fill-rule="nonzero" opacity="1" stroke="#000000" stroke-linecap="butt" stroke-linejoin="round" stroke-width="1" vectornator:layerName="Curve 3"/>
<path d="M199.162 0.21197L213.891 0.21197L213.821 40.6175C213.821 40.6175 213.072 54.9598 228.402 54.9264C243.534 54.8933 242.443 41.2215 242.443 41.2215L242.185 0.21197L258.186 0.210214L257.948 43.4765C257.948 43.4765 256.302 55.2827 249.016 61.4076C241.73 67.5326 228.931 66.8078 228.931 66.8078C228.931 66.8078 214.837 67.2187 207.227 61.3001C199.618 55.3814 198.967 44.1744 198.967 44.1744L199.162 0.21197Z" fill="#000000" fill-rule="nonzero" opacity="1" stroke="#000000" stroke-linecap="butt" stroke-linejoin="round" stroke-width="1" vectornator:layerName="Curve 4"/>
<path d="M306.853 22.2239L320.928 22.286C320.928 22.286 320.666 10.5367 312.376 4.95484C304.085-0.627005 291.969 0.210214 291.969 0.210214C291.969 0.210214 276.273 0.70503 270.819 7.22452C265.364 13.744 267.346 22.628 270.125 25.6614C278.132 34.4 291.115 38.1408 300.864 40.9353C306.551 42.5656 321.606 54.8591 294.625 54.7699C277.152 54.7122 278.687 42.18 278.687 42.18L265.385 42.0245C265.385 42.0245 264.747 51.6507 269.617 57.7244C274.488 63.7981 278.436 66.8078 296.59 66.8078C314.745 66.8078 323.004 61.6028 323.784 47.837C324.404 36.9004 305.084 29.3554 305.084 29.3554C305.084 29.3554 281.876 22.976 282.078 18.4339C282.28 13.8918 289.981 9.62659 299.129 12.5618C308.277 15.4969 306.853 22.2239 306.853 22.2239Z" fill="#000000" fill-rule="nonzero" opacity="1" stroke="#000000" stroke-linecap="butt" stroke-linejoin="round" stroke-width="1" vectornator:layerName="Curve 5"/>
</g>
</svg>
