<?xml version="1.0" encoding="UTF-8" standalone="yes"?>
<!DOCTYPE svg PUBLIC "-//W3C//DTD SVG 1.1//EN" "http://www.w3.org/Graphics/SVG/1.1/DTD/svg11.dtd">

<svg width="500" height="500" viewBox="0 0 500 500" xmlns="http://www.w3.org/2000/svg" xmlns:xlink="http://www.w3.org/1999/xlink" version="1.1" baseProfile="full">
    <g transform="scale(1.000000,-1.000000) translate(0,-500)">
        <path d="M 430.059911 237.556044 C 432.410712 239.902860 432.410712 243.704519 430.059911 246.051355 C 427.709109 248.398171 423.895793 248.398171 421.531919 246.051355 L 322.030496 146.791453 L 237.260241 231.359245 C 237.234097 231.380129 237.221024 231.393202 237.194879 231.414086 C 237.103532 231.502902 237.012184 231.583867 236.920678 231.666148 C 236.855316 231.713157 236.803185 231.767997 236.737823 231.815026 C 236.646476 231.882939 236.554969 231.950831 236.476694 232.012228 C 236.385187 232.067068 236.319985 232.121929 236.241550 232.168937 C 236.163275 232.215946 236.084841 232.264270 236.006566 232.311279 C 235.915059 232.366139 235.823711 232.420980 235.719132 232.468009 C 235.653929 232.501965 235.575495 232.529385 235.510292 232.563341 C 235.405713 232.611666 235.301293 232.665211 235.183801 232.705683 C 235.118439 232.733123 235.053236 232.754007 234.974802 232.774911 C 234.870382 232.815384 234.752730 232.855876 234.648311 232.889833 C 234.556963 232.910717 234.478529 232.923789 234.400254 232.944673 C 234.295675 232.972113 234.191255 232.998218 234.086675 233.019122 C 233.995328 233.032175 233.890908 233.046542 233.799401 233.059615 C 233.708054 233.073962 233.616547 233.087035 233.512127 233.093551 C 233.407707 233.101403 233.290056 233.107919 233.172563 233.107919 C 233.107201 233.114455 233.028926 233.114455 232.950492 233.114455 C 232.819927 233.114455 232.702435 233.107919 232.584943 233.101403 C 232.519581 233.093551 232.441306 233.093551 232.375944 233.087035 C 232.258451 233.073962 232.127727 233.053078 232.010235 233.032175 C 231.945033 233.019122 231.866598 233.012586 231.788323 232.998218 C 231.683744 232.972113 231.579324 232.944673 231.474745 232.917253 C 231.396470 232.896369 231.292050 232.876780 231.213615 232.849340 C 231.122268 232.821920 231.030761 232.787964 230.952486 232.754007 C 230.847907 232.720051 230.743487 232.679578 230.639067 232.637770 C 230.560633 232.603814 230.495271 232.569878 230.430068 232.542438 C 230.312576 232.482376 230.194924 232.427516 230.090504 232.366139 C 230.064360 232.353087 230.038215 232.345236 230.012070 232.332183 L 198.708119 214.572362 C 189.801506 209.946623 179.667202 209.191791 170.159736 212.450168 C 162.036670 215.231881 155.363206 220.599399 150.975182 227.782208 C 157.870557 233.392622 174.704470 246.065723 199.361102 257.825927 C 206.047638 261.008560 213.583083 261.926658 221.144674 261.498297 C 221.418875 261.464361 221.680005 261.436921 221.954366 261.436921 C 221.980511 261.436921 221.993583 261.444772 222.019568 261.444772 C 244.873962 259.831904 267.702370 246.221117 268.002716 246.038283 C 270.405648 244.582144 273.500779 244.970012 275.459727 246.977284 L 347.104967 320.423467 C 349.416551 322.797713 349.364261 326.605898 346.987475 328.918768 C 344.597456 331.231627 340.784139 331.176777 338.472555 328.803846 L 270.053012 258.669596 C 261.903801 263.009316 243.241505 271.810214 223.547605 273.353854 C 186.915214 291.175062 148.833379 281.945803 136.870692 278.259066 L 99.324189 315.710236 C 96.973467 318.057052 93.159991 318.057052 90.809269 315.710236 C 88.458547 313.363411 88.458547 309.560446 90.809269 307.214926 L 130.993848 267.130930 C 132.665522 265.464517 135.159801 264.926456 137.380038 265.757052 C 137.719601 265.886342 165.601930 276.082022 196.709954 269.783354 C 195.861204 269.435958 195.012295 269.068994 194.176458 268.668054 C 159.672796 252.220734 140.135605 234.399516 139.325913 233.651201 C 137.406183 231.889455 136.844547 229.107762 137.915528 226.747874 C 143.478794 214.551458 153.534823 205.437141 166.241840 201.084348 C 171.413412 199.309549 176.741852 198.424093 182.017844 198.424093 C 189.709999 198.424093 197.349864 200.289023 204.389036 203.974446 C 204.454398 204.008402 204.519760 204.035822 204.571891 204.077630 L 231.984090 219.619925 L 326.666577 125.175113 C 326.666577 125.168576 326.666577 125.168576 326.666577 125.160745 L 346.256057 105.632661 C 348.881061 103.014194 350.317591 99.539007 350.317591 95.837921 C 350.317591 92.131575 348.881061 88.655112 346.256057 86.036645 L 336.435173 76.235369 L 312.953941 99.660484 L 307.024967 105.579096 C 304.674166 107.925932 300.847617 107.925932 298.496975 105.579096 C 296.146174 103.232280 296.146174 99.422790 298.496975 97.075974 L 329.944563 65.705385 C 335.364351 60.305206 335.364351 51.510824 329.944563 46.109369 C 327.319560 43.497438 323.832735 42.055648 320.123678 42.055648 C 316.414781 42.055648 312.927797 43.497438 310.302953 46.109369 L 304.373819 52.020170 L 304.373819 52.026706 L 270.954211 85.370590 C 268.603409 87.717406 264.776861 87.717406 262.426219 85.370590 C 260.075418 83.023774 260.075418 79.214283 262.426219 76.867467 L 295.858900 43.524859 C 301.278688 38.124679 301.278688 29.335558 295.858900 23.935379 C 290.439112 18.527388 281.623846 18.527388 276.204058 23.928842 L 242.784449 57.271451 C 242.771377 57.277987 242.771377 57.277987 242.771377 57.285799 L 234.883455 65.155547 C 232.519581 67.508899 228.706105 67.508899 226.355463 65.155547 C 224.004661 62.808731 224.004661 59.005777 226.355463 56.658961 L 245.135251 37.927477 C 250.555039 32.526022 250.215475 23.405149 244.390761 17.596218 C 238.579279 11.787286 229.424449 11.454259 224.004661 16.854438 L 214.183776 26.649178 L 218.702525 31.166492 C 223.456258 35.900616 226.068189 42.198009 226.068189 48.898893 C 226.068189 55.591966 223.456258 61.890634 218.702525 66.624758 L 217.566341 67.759666 C 212.486117 72.834630 205.747291 75.262431 199.073828 75.071765 C 200.314431 78.071564 200.967414 81.316868 200.967414 84.662767 C 200.967414 91.355839 198.342410 97.654507 193.601750 102.395168 L 192.465566 103.524815 C 188.247324 107.728710 182.801550 110.251844 176.937779 110.769021 C 177.616747 113.060977 177.969383 115.461338 177.969383 117.917874 C 177.969383 124.617463 175.357452 130.909615 170.603719 135.650255 L 169.467536 136.778607 C 164.726875 141.520583 158.419120 144.124662 151.693367 144.124662 C 149.225073 144.124662 146.822142 143.770751 144.536702 143.091663 C 144.014284 148.947603 141.480788 154.381719 137.262545 158.585634 L 136.126362 159.715281 C 131.385701 164.449406 125.064714 167.061336 118.352033 167.061336 C 111.639512 167.061336 105.331597 164.449406 100.577944 159.715281 L 90.691777 149.846112 L 11.281209 229.046366 C 8.926581 231.393202 5.118366 231.393202 2.765014 229.046366 C 0.411662 226.699550 0.411662 222.897891 2.765014 220.551075 L 82.176857 141.342970 L 75.464176 134.664265 C 65.668161 124.882578 65.668161 108.979835 75.464176 99.198167 L 90.117149 84.588318 C 90.417495 84.281435 90.757059 84.016320 91.096623 83.791698 C 91.096623 83.757742 91.096623 83.717249 91.096623 83.676757 C 91.096623 76.977148 93.708554 70.678480 98.462207 65.944355 C 103.673076 60.747914 110.516241 58.142520 117.372559 58.142520 C 119.775650 58.142520 122.165510 58.469011 124.490166 59.107646 C 124.881860 53.027064 127.441661 47.361770 131.803540 43.007701 L 133.958415 40.858088 C 138.568511 36.253253 144.641122 33.948205 150.700820 33.948205 C 152.894912 33.948205 155.088845 34.253812 157.204502 34.851954 C 157.139300 34.077494 157.100082 33.295222 157.100082 32.506414 C 157.100082 25.805530 159.712013 19.514673 164.452674 14.772737 L 165.588857 13.644365 C 170.486227 8.753532 176.924706 6.311383 183.363026 6.311383 C 189.801506 6.311383 196.239825 8.753532 201.137195 13.644365 L 205.669016 18.153867 L 215.489742 8.352591 C 220.413257 3.440873 226.916938 1.000000 233.512127 1.000000 C 240.472865 1.000000 247.512037 3.705988 252.905681 9.093095 C 256.810504 12.991383 259.318015 17.745116 260.401909 22.697326 L 267.689297 15.433531 C 272.743377 10.385988 279.390696 7.862854 286.024942 7.862854 C 292.672421 7.862854 299.319740 10.385988 304.373819 15.433531 C 308.840278 19.881657 311.321485 25.567835 311.856975 31.397651 C 314.534268 30.499162 317.329053 30.043381 320.123678 30.043381 C 326.771157 30.043381 333.418476 32.566515 338.472555 37.614058 C 346.308347 45.422430 348.058296 57.033756 343.761778 66.555570 L 354.770977 77.534798 C 364.892208 87.628609 364.892208 104.041972 354.770977 114.135784 L 335.181497 133.670423 L 330.558329 138.296142 L 430.059911 237.556044 Z M 83.979096 107.701290 C 78.885799 112.789346 78.885799 121.073087 83.979096 126.161123 L 109.105856 151.219990 C 111.574150 153.681728 114.865208 155.042533 118.352033 155.042533 C 121.852091 155.042533 125.143149 153.681728 127.611442 151.219990 L 127.611442 151.212139 L 128.747626 150.083787 C 131.215920 147.614218 132.574015 144.336232 132.574015 140.853233 C 132.574015 137.363697 131.215920 134.085711 128.747626 131.622659 L 94.374609 97.334552 L 83.979096 107.701290 Z M 106.977126 74.446203 C 104.508833 76.909235 103.150658 80.187221 103.150658 83.676757 C 103.150658 87.159756 104.508833 90.437742 106.977126 92.907311 L 126.592751 112.469371 L 137.262545 123.120832 C 137.275458 123.120832 137.275458 123.127368 137.275458 123.127368 L 142.447190 128.283316 C 144.915483 130.746369 148.193469 132.105879 151.693367 132.105879 C 155.193424 132.105879 158.484482 130.746369 160.952616 128.283316 L 162.088800 127.147113 C 164.557094 124.678839 165.915348 121.399578 165.915348 117.917874 C 165.915348 114.428319 164.557094 111.149038 162.088800 108.687300 L 127.755080 74.446203 C 122.034945 68.726068 112.710333 68.726068 106.977126 74.446203 Z M 142.473334 49.361210 L 140.318460 51.510824 C 137.837094 53.972581 136.478839 57.250567 136.478839 60.740103 C 136.478839 64.223102 137.837094 67.501088 140.318460 69.970657 L 153.116824 82.737775 L 165.445220 95.029504 C 167.913514 97.491262 171.191499 98.852067 174.691397 98.852067 C 178.191455 98.852067 181.469440 97.491262 183.950806 95.021693 L 185.073917 93.893321 C 187.555124 91.423752 188.913379 88.145766 188.913379 84.656231 C 188.913379 81.173231 187.555124 77.895246 185.073917 75.425677 L 158.941538 49.361210 C 154.409877 44.830824 147.018068 44.824288 142.473334 49.361210 Z M 174.116849 22.139676 L 172.980666 23.275860 C 170.499300 25.737617 169.141045 29.016878 169.141045 32.506414 C 169.141045 35.994674 170.499300 39.273935 172.980666 41.735693 L 190.532763 59.257819 C 193.092564 61.808373 196.448824 63.080382 199.792172 63.080382 C 203.148433 63.080382 206.504694 61.801837 209.051422 59.257819 L 210.187605 58.128172 C 212.655899 55.659878 214.013995 52.380617 214.013995 48.898893 C 214.013995 45.409358 212.655899 42.130097 210.187605 39.661803 L 201.411557 30.907913 C 201.411557 30.900102 201.411557 30.900102 201.398484 30.900102 L 192.622276 22.139676 C 187.516066 17.051640 179.210146 17.051640 174.116849 22.139676 Z" transform="scale(1.000000,1.000000) translate(29.069085,84.190473)" opacity="1.000000"></path>
    </g>
</svg>